HIERARCHY
ROOT Hips
{
	OFFSET 0.000000 0.000000 0.000000 
	CHANNELS 6 Xposition Yposition Zposition Yrotation Zrotation Xrotation 
	JOINT Lumbar
	{
		OFFSET 0.000000 0.000000 0.000000 
		CHANNELS 3 Zrotation Xrotation Yrotation
		JOINT Neck
		{
			OFFSET 0.000000 0.445665 0.000000 
			CHANNELS 3 Zrotation Xrotation Yrotation
			End Site
			{
				OFFSET 0.000000 0.227535 0.000000 
			}
		}
		JOINT RightShoulder
		{
			OFFSET 0.019635 0.377685 0.194865 
			CHANNELS 3 Zrotation Xrotation Yrotation
			JOINT RightElbow
			{
				OFFSET 0.000000 -0.243375 0.000000 
				CHANNELS 2 Zrotation Yrotation
				JOINT RightWrist
				{
					OFFSET 0.000000 -0.264825 0.000000 
					CHANNELS 2 Zrotation Xrotation
					End Site
					{
						OFFSET 0.006600 -0.176220 0.000990 
					}
				}
			}
		}
		JOINT LeftShoulder
		{
			OFFSET 0.019635 0.377685 -0.194865 
			CHANNELS 3 Zrotation Xrotation Yrotation
			JOINT LeftElbow
			{
				OFFSET 0.000000 -0.243375 0.000000 
				CHANNELS 2 Zrotation Yrotation
				JOINT LeftWrist
				{
					OFFSET 0.000000 -0.264825 0.000000 
					CHANNELS 2 Zrotation Xrotation
					End Site
					{
						OFFSET 0.006600 -0.176220 -0.000990 
					}
				}
			}
		}
	}
	JOINT RightHip
	{
		OFFSET 0.052140 -0.069960 0.075570 
		CHANNELS 3 Zrotation Xrotation Yrotation
		JOINT RightKnee
		{
			OFFSET 0.000000 -0.402270 0.000000 
			CHANNELS 1 Zrotation
			JOINT RightAnkle
			{
				OFFSET 0.000000 -0.404085 0.000000 
				CHANNELS 3 Zrotation Xrotation Yrotation
				End Site
				{
					OFFSET 0.204105 -0.089430 0.008415 
				}
			}
		}
	}
	JOINT LeftHip
	{
		OFFSET 0.052140 -0.069960 -0.075570 
		CHANNELS 3 Zrotation Xrotation Yrotation
		JOINT LeftKnee
		{
			OFFSET 0.000000 -0.402270 0.000000 
			CHANNELS 1 Zrotation
			JOINT LeftAnkle
			{
				OFFSET 0.000000 -0.404085 0.000000 
				CHANNELS 3 Zrotation Xrotation Yrotation
				End Site
				{
					OFFSET 0.204105 -0.089430 -0.008415 
				}
			}
		}
	}
}
MOTION
Frames: 31
Frame Time: 0.02
0.8664 0.93875 -0.32857 844.94249 0 -7.29422 -4.26108 9.48049 -0.73092 -33.31935 -5.05018 -2.47219 19.23635 -10.27676 -0.58207 9.20902 83.04418 -2.0161 -2.75976 22.62674 47.96665 -45.95056 90.79277 -82.74762 0.88156 0.8327 16.57837 4.45469 -0.31198 -45.27108 -4.31011 -2.62167 -7.79313 2.05096 -1.12569 -3.36666 -19.48954 9.80643 0.00402 -2.17653
0.86024 0.93801 -0.34062 845.7946 0 -7.1261 -4.38403 9.36808 -0.92695 -33.22056 -4.86663 -2.51732 18.06687 -10.34462 -0.19627 9.08229 82.95178 -1.95415 -2.51259 22.25708 47.89 -45.74547 90.84187 -82.76894 0.9478 0.73109 16.85465 4.27307 0.5221 -41.30893 -4.13779 -2.59229 -7.49367 1.13797 -1.12215 -3.91357 -19.17478 10.14217 -0.20124 -2.38902
0.85422 0.93686 -0.35262 846.61439 0 -6.87986 -4.52823 9.17734 -1.06464 -33.06044 -4.72762 -2.52803 17.01082 -10.36458 0.27495 8.93144 82.86245 -1.87993 -2.23777 21.89472 47.82497 -45.61508 90.90519 -82.81733 1.12494 0.61155 16.96307 3.98248 1.27749 -37.02719 -4.18277 -2.50571 -6.84453 0.27357 -1.15197 -4.41427 -18.92469 10.47974 -0.44875 -2.66126
0.84813 0.93587 -0.36467 847.44668 0 -6.67008 -4.66239 9.0244 -1.22273 -32.92548 -4.57166 -2.55315 15.91831 -10.4039 0.69805 8.79428 82.77564 -1.8083 -1.98155 21.52908 47.75395 -45.45198 90.95936 -82.8456 1.23754 0.50434 17.13949 3.74509 2.05559 -32.90807 -4.12265 -2.44405 -6.34614 -0.60925 -1.16276 -4.93366 -18.65538 10.81944 -0.68242 -2.90624
0.84208 0.93497 -0.37658 848.28668 0 -6.45382 -4.79939 8.859 -1.40183 -32.79919 -4.3993 -2.58355 14.75925 -10.45405 1.17766 8.64952 82.67467 -1.74765 -1.70022 21.15962 47.68337 -45.28133 91.02511 -82.90543 1.40634 0.3785 17.34263 3.49151 2.89472 -28.67119 -4.08936 -2.38713 -5.87394 -1.50953 -1.19123 -5.46326 -18.33757 11.14821 -0.89159 -3.14584
0.83598 0.93379 -0.38879 849.10388 0 -6.23329 -4.93433 8.70194 -1.52505 -32.64216 -4.27252 -2.59479 13.76997 -10.47034 1.55337 8.51362 82.60255 -1.66299 -1.46521 20.80235 47.61567 -45.14526 91.06987 -82.9075 1.48726 0.28785 17.45393 3.24691 3.58734 -24.63285 -4.05355 -2.30716 -5.27049 -2.35982 -1.18983 -5.96039 -18.14104 11.49844 -1.16224 -3.41328
0.82974 0.93195 -0.40169 849.86174 0 -6.02262 -5.067 8.59043 -1.50956 -32.40548 -4.26263 -2.56096 13.18459 -10.40065 1.61885 8.40485 82.6152 -1.50086 -1.3558 20.46391 47.55244 -45.08402 91.05507 -82.73076 1.27957 0.29548 17.34614 3.04343 3.87336 -21.07293 -3.93529 -2.17161 -4.35067 -3.09819 -1.10277 -6.379 -18.23266 11.9199 -1.59496 -3.74056
0.82344 0.92986 -0.41492 850.59869 0 -5.81065 -5.19503 8.49026 -1.44019 -32.14225 -4.29726 -2.50909 12.77382 -10.29905 1.57434 8.30591 82.65543 -1.31759 -1.29539 20.14054 47.4922 -45.05585 91.01826 -82.49721 0.9831 0.33981 17.15379 2.85494 4.01633 -17.75653 -3.81059 -2.0158 -3.31856 -3.78394 -0.983 -6.76596 -18.4522 12.35953 -2.08709 -4.09508
0.81716 0.92788 -0.42807 851.3482 0 -5.59751 -5.31967 8.38269 -1.39548 -31.89763 -4.31044 -2.46586 12.30633 -10.21487 1.57989 8.20383 82.67897 -1.15349 -1.21844 19.81883 47.43136 -45.01429 90.99032 -82.29821 0.7402 0.36964 17.00589 2.66598 4.23915 -14.42917 -3.70352 -1.87309 -2.36486 -4.48593 -0.87537 -7.16819 -18.63131 12.7839 -2.55172 -4.43949
0.81095 0.92587 -0.44092 852.08379 0 -5.38747 -5.46889 8.2802 -1.34841 -31.62245 -4.32961 -2.4197 11.74385 -10.11728 1.59033 8.09499 82.72027 -0.94904 -1.11673 19.46029 47.3676 -44.96796 90.96778 -82.06389 0.44643 0.38981 16.82762 2.44524 4.40161 -10.66625 -3.54309 -1.7121 -1.28462 -5.22371 -0.78225 -7.56737 -18.72983 13.24201 -3.02338 -4.77622
0.80456 0.92388 -0.45447 852.84367 0 -5.17367 -5.56475 8.17287 -1.2936 -31.40637 -4.34712 -2.37565 11.42348 -10.03994 1.56093 8.00337 82.73099 -0.8232 -1.0781 19.18336 47.3106 -44.93898 90.92846 -81.88853 0.2347 0.43883 16.69345 2.29718 4.6507 -7.87626 -3.48807 -1.58495 -0.4442 -5.8687 -0.64843 -7.96309 -19.03585 13.62897 -3.48961 -5.13475
0.7977 0.9219 -0.46986 853.67776 0 -4.93305 -5.52118 8.03219 -1.23661 -31.35172 -4.34192 -2.343 11.69268 -10.03316 1.46922 7.95274 82.65128 -0.92474 -1.20641 19.11612 47.27034 -44.94529 90.84918 -81.89629 0.28312 0.56066 16.71275 2.33352 5.22612 -7.68408 -3.73539 -1.55805 -0.31053 -6.32297 -0.42986 -8.38237 -19.79929 13.85672 -3.96329 -5.54537
0.79065 0.91997 -0.48595 854.53703 0 -4.69204 -5.42288 7.88963 -1.17291 -31.35897 -4.33441 -2.31291 12.20596 -10.04719 1.3382 7.92022 82.53978 -1.10533 -1.39598 19.13262 47.23681 -44.96861 90.75366 -81.96408 0.41476 0.70994 16.77732 2.44525 5.88416 -8.46824 -4.08552 -1.56593 -0.42128 -6.67459 -0.16801 -8.79496 -20.78384 14.00282 -4.42224 -5.97655
0.78367 0.91808 -0.50176 855.38336 0 -4.46279 -5.34482 7.75989 -1.1086 -31.34408 -4.33282 -2.28123 12.63034 -10.04695 1.20932 7.88195 82.44222 -1.2463 -1.55428 19.11872 47.20105 -44.98643 90.66465 -81.99995 0.49952 0.84541 16.81593 2.53144 6.47074 -8.82823 -4.38187 -1.55686 -0.40998 -7.04086 0.08758 -9.19396 -21.72049 14.161 -4.86363 -6.39957
0.77678 0.91591 -0.51743 856.23442 0 -4.18522 -5.28537 7.58087 -1.05764 -31.30438 -4.31327 -2.2513 12.96681 -10.06429 1.13746 7.83255 82.34741 -1.40169 -1.72789 19.07336 47.16241 -44.99508 90.57793 -82.05312 0.61803 0.98788 16.87774 2.5818 7.19604 -9.12038 -4.71032 -1.55151 -0.43842 -7.54651 0.28931 -9.66119 -22.43439 14.43215 -5.40998 -6.82039
0.76966 0.91433 -0.53355 857.08293 0 -4.00739 -5.17524 7.50277 -0.97824 -31.3296 -4.32871 -2.21784 13.54346 -10.05236 0.94595 7.81176 82.23942 -1.54666 -1.88459 19.1128 47.1307 -45.02764 90.48367 -82.08562 0.68898 1.12168 16.89866 2.72385 7.65317 -9.77461 -4.99336 -1.54739 -0.44672 -7.73044 0.61101 -9.98618 -23.66968 14.44002 -5.73287 -7.24806
0.76189 0.91429 -0.55081 857.90845 0 -4.11222 -4.92999 7.71341 -0.8196 -31.53477 -4.45217 -2.18016 14.71147 -9.93798 0.37314 7.85498 82.09853 -1.63897 -1.97052 19.36955 47.12152 -45.11111 90.36509 -82.04362 0.5926 1.22585 16.83433 3.10626 7.357 -11.25764 -5.15207 -1.53449 -0.31369 -7.11857 1.27035 -9.90992 -26.23004 13.81623 -5.44715 -7.7061
0.75392 0.91484 -0.56847 858.73179 0 -4.31591 -4.63734 8.02356 -0.63293 -31.8004 -4.60876 -2.1376 16.11455 -9.79675 -0.30722 7.92835 81.94604 -1.71903 -2.03878 19.70793 47.1179 -45.21967 90.24062 -81.97962 0.44873 1.31997 16.72052 3.57701 6.78789 -13.05733 -5.25698 -1.52237 -0.15697 -6.17507 2.04502 -9.692 -29.31529 12.91926 -4.93619 -8.1654
0.74608 0.91514 -0.58587 859.5635 0 -4.46999 -4.37196 8.28215 -0.46137 -32.02797 -4.74268 -2.09362 17.41658 -9.6787 -0.89769 7.99479 81.80166 -1.80783 -2.1209 20.0066 47.10873 -45.32402 90.12428 -81.92768 0.3374 1.41781 16.60436 4.00386 6.33909 -14.66661 -5.36895 -1.51244 -0.02919 -5.33825 2.75634 -9.54669 -32.20294 12.09384 -4.52449 -8.61537
0.73808 0.91536 -0.60363 860.36769 0 -4.64479 -4.0802 8.56859 -0.28099 -32.30201 -4.90827 -2.06592 18.70122 -9.51467 -1.66138 8.03315 81.64459 -1.88605 -2.18066 20.31956 47.11352 -45.39961 89.98577 -81.86878 0.18304 1.5202 16.59445 4.45013 5.90707 -16.50718 -5.55659 -1.49315 0.1652 -4.6799 3.51774 -9.36952 -34.93732 11.47476 -4.12404 -9.11011
0.73035 0.9159 -0.62071 861.22489 0 -4.7987 -3.83318 8.81925 -0.11059 -32.49325 -5.01634 -2.00204 20.07671 -9.44022 -2.09103 8.13708 81.51115 -1.98228 -2.2819 20.62064 47.08928 -45.53962 89.89046 -81.81874 0.10549 1.61039 16.35109 4.87476 5.37642 -17.92753 -5.57415 -1.49288 0.23175 -3.57722 4.19865 -9.22121 -38.09791 10.37827 -3.64858 -9.50278
0.72344 0.91715 -0.63593 862.25904 0 -4.88118 -3.71879 8.95917 0.00941 -32.43679 -4.95284 -1.84907 21.6267 -9.61531 -1.55609 8.41405 81.45041 -2.13187 -2.50255 20.87189 46.99397 -45.8618 89.93208 -81.79536 0.25492 1.66861 15.47324 5.228 4.62092 -18.11228 -5.12047 -1.54655 -0.07841 -1.2882 4.65468 -9.22225 -42.42849 7.89137 -3.00657 -9.69152
0.71681 0.91871 -0.65041 863.34111 0 -4.93738 -3.65185 9.05747 0.12116 -32.29526 -4.83126 -1.65825 23.26188 -9.88193 -0.68382 8.75646 81.41357 -2.29966 -2.76524 21.10727 46.86751 -46.24592 90.01489 -81.78191 0.482 1.71476 14.36221 5.55426 3.77879 -17.8576 -4.49968 -1.61892 -0.5139 1.42791 5.02074 -9.25141 -47.14299 4.9596 -2.29986 -9.76475
0.71004 0.92014 -0.66514 864.38117 0 -4.99858 -3.56508 9.1665 0.24734 -32.19532 -4.73922 -1.47817 24.86966 -10.10973 0.02351 9.06866 81.36241 -2.4581 -3.00788 21.34777 46.74812 -46.59474 90.06778 -81.76578 0.67131 1.76693 13.35917 5.88582 2.9885 -17.79799 -3.96458 -1.68136 -0.87855 3.92203 5.41093 -9.24396 -51.60483 2.32332 -1.63209 -9.83698
0.70331 0.92156 -0.68024 865.50573 0 -5.09201 -3.46916 9.31298 0.3301 -32.08566 -4.63477 -1.32435 26.43966 -10.32591 0.7753 9.38206 81.32372 -2.62004 -3.2535 21.60062 46.65789 -46.97461 90.16596 -81.74138 0.87059 1.81705 12.34635 6.24951 2.13597 -17.77065 -3.38661 -1.74956 -1.29949 6.54774 5.87581 -9.32945 -56.4279 -0.71567 -0.91527 -10.12708
0.69656 0.92305 -0.69439 866.46678 0 -5.11144 -3.40437 9.37098 0.50011 -31.97459 -4.5423 -1.108 28.10347 -10.58706 1.51711 9.71042 81.267 -2.78 -3.50365 21.82215 46.50069 -47.30423 90.18191 -81.73658 1.06679 1.86803 11.29861 6.53921 1.39622 -17.5662 -2.85882 -1.81061 -1.63529 8.99374 6.1624 -9.23331 -60.56698 -3.01901 -0.28935 -9.94604
0.68968 0.92469 -0.70618 866.95496 0 -4.92695 -3.41266 9.18836 0.92046 -31.88564 -4.49378 -0.71884 30.02056 -10.96142 2.14065 10.04449 81.14057 -2.92376 -3.75168 21.96673 46.15541 -47.47908 89.94114 -81.78574 1.2476 1.92991 10.21671 6.6262 0.98869 -16.98893 -2.51115 -1.84373 -1.68727 10.85925 5.97692 -8.59854 -62.85271 -3.17135 0.07845 -8.40513
0.68277 0.92638 -0.71703 867.27873 0 -4.66957 -3.45119 8.91887 1.42733 -31.79681 -4.45976 -0.26988 32.02453 -11.37578 2.74498 10.39513 81.00059 -3.06679 -4.00375 22.07872 45.7458 -47.60114 89.6197 -81.85395 1.42078 1.9921 9.10736 6.64013 0.69906 -16.24595 -2.21961 -1.86969 -1.65261 12.52284 5.61512 -7.78545 -64.40773 -2.56878 0.34967 -6.41031
0.67587 0.92802 -0.72825 867.68413 0 -4.44892 -3.47685 8.69284 1.88969 -31.70433 -4.42117 0.1456 33.97835 -11.76459 3.36346 10.75054 80.8726 -3.21345 -4.25691 22.20168 45.37272 -47.74789 89.34829 -81.91205 1.5895 2.05048 8.00691 6.6903 0.35713 -15.57053 -1.9025 -1.9013 -1.6697 14.26498 5.33429 -7.07571 -66.21269 -2.31733 0.6584 -4.68051
0.66902 0.92981 -0.73969 868.06209 0 -4.21193 -3.50011 8.44847 2.37393 -31.62451 -4.37217 0.58924 35.98268 -12.1881 3.96902 11.05522 80.70953 -3.34402 -4.4991 22.34093 44.96782 -47.89425 89.0226 -81.9766 1.79364 2.12376 6.91181 6.72672 0.00675 -14.90986 -1.58082 -1.92343 -1.63936 16.08152 5.0458 -6.27649 -68.3875 -2.047 0.99692 -2.69884
0.66204 0.93128 -0.75045 868.45743 0 -3.99233 -3.53537 8.22235 2.83295 -31.51895 -4.34888 0.98763 37.89835 -12.54714 4.59471 11.47005 80.63016 -3.51121 -4.76465 22.43801 44.61426 -48.02758 88.78936 -82.03214 1.9221 2.16642 5.80404 6.77482 -0.29704 -14.18837 -1.28287 -1.96336 -1.68502 17.68514 4.73385 -5.61615 -69.60164 -1.63165 1.24902 -1.1353
